<svg viewBox="0 0 55 55" width="100%" height="100%" role="img" aria-label="University of Florida" xmlns="http://www.w3.org/2000/svg">
  <rect x="0.1" width="55" height="55" fill="#FA4616"/>
  <polygon fill="#FFFFFF" points="36.4,36.4 36.4,29.4 42.9,29.4 42.9,24.7 36.4,24.7 36.4,18.1 43.5,18.1 43.5,20.8 48.4,20.8 48.4,13.6 29.4,13.6 29.4,18.1 31.1,18.1 31.1,36.4 29.4,36.4 29.4,41.2 38.1,41.2 38.1,36.4 "/>
  <path fill="#FFFFFF" d="M26.9,30.7V18.1h1.8v-4.6h-8.8v4.6h1.8v11c0,4.6-0.4,6.8-3.9,6.8c-3.2,0-3.9-2.2-3.9-6.8v-11h1.8v-4.6H6.9v4.6h1.8v12.5c0,2.8,0,5,1.3,7.1c1.5,2.3,4.1,3.8,7.9,3.8C24.5,41.4,26.9,37.9,26.9,30.7z"/>
</svg>
